<svg width="107" height="107" viewBox="0 0 107 107" fill="none" xmlns="http://www.w3.org/2000/svg">
<g clip-path="url(#clip0_3004_7788)">
<path d="M15.4184 36.3985C15.1731 36.9428 14.8581 37.3893 14.4732 37.7379C14.0841 38.0751 13.6648 38.2895 13.2153 38.3812C12.758 38.4694 12.3027 38.4161 11.8495 38.2214L12.3667 37.0735C12.771 37.2082 13.1695 37.198 13.5622 37.0427C13.9505 36.876 14.2655 36.5244 14.5072 35.9879C14.7382 35.4751 14.7933 35.0159 14.6723 34.6103C14.5471 34.1932 14.2833 33.894 13.8809 33.7127C13.5653 33.5705 13.2698 33.5418 12.9944 33.6265C12.719 33.7112 12.4713 33.8606 12.2515 34.0747C12.0316 34.2889 11.763 34.5902 11.4456 34.9787C11.0583 35.459 10.719 35.8329 10.4277 36.1003C10.14 36.3598 9.79291 36.5403 9.38649 36.6419C8.97572 36.7321 8.51394 36.6616 8.00114 36.4306C7.55145 36.228 7.20458 35.9341 6.96053 35.5489C6.71649 35.1637 6.59221 34.7233 6.5877 34.2278C6.58675 33.7244 6.70712 33.2044 6.94883 32.6679C7.29717 31.8948 7.77482 31.3507 8.38177 31.0358C8.99228 30.7129 9.63127 30.6639 10.2987 30.8887L9.76556 32.0721C9.43222 31.9693 9.08145 32.0106 8.71325 32.1959C8.33717 32.3776 8.04071 32.7091 7.82389 33.1903C7.62128 33.64 7.57434 34.0602 7.68305 34.4508C7.78388 34.8379 8.04336 35.1257 8.46149 35.314C8.76128 35.4491 9.04317 35.4765 9.30716 35.3961C9.5747 35.3078 9.81485 35.1645 10.0276 34.9662C10.236 34.7564 10.5046 34.4551 10.8335 34.0622C11.2286 33.5854 11.5758 33.2151 11.875 32.9513C12.1663 32.6839 12.5191 32.5012 12.9334 32.4032C13.3398 32.3016 13.8034 32.368 14.3241 32.6026C14.7264 32.7839 15.0571 33.061 15.3162 33.434C15.5752 33.807 15.721 34.2523 15.7535 34.7699C15.786 35.2876 15.6743 35.8304 15.4184 36.3985Z" fill="white"/>
<path d="M15.2236 28.5818C14.5338 28.0247 14.0407 27.3694 13.7442 26.6159C13.4409 25.857 13.3495 25.0848 13.4699 24.2993C13.5958 23.5071 13.9237 22.783 14.4534 22.1271C15.0761 21.3562 15.8055 20.8336 16.6417 20.5592C17.4779 20.2848 18.3439 20.2915 19.2399 20.5795L18.3469 21.6851C17.7625 21.5371 17.2052 21.5562 16.6748 21.7424C16.15 21.9219 15.68 22.2686 15.2649 22.7825C14.8662 23.2762 14.6234 23.8119 14.5365 24.3898C14.4497 24.9678 14.5291 25.5403 14.7749 26.1076C15.0139 26.6694 15.4175 27.1797 15.9855 27.6385C16.5467 28.0918 17.1305 28.3789 17.7368 28.4999C18.3363 28.6153 18.9094 28.5698 19.4561 28.3633C20.0028 28.1568 20.4755 27.8067 20.8742 27.3131C21.2893 26.7992 21.5327 26.2695 21.6045 25.7241C21.675 25.1665 21.5764 24.6176 21.3088 24.0774L22.2018 22.9717C22.665 23.7816 22.8505 24.6242 22.7581 25.4994C22.659 26.3691 22.2982 27.1894 21.6755 27.9603C21.1457 28.6162 20.5102 29.0918 19.769 29.387C19.0264 29.67 18.2556 29.7458 17.4567 29.6145C16.6577 29.4831 15.9133 29.1389 15.2236 28.5818Z" fill="white"/>
<path d="M30.6226 19.6999L26.6907 17.9861L25.5369 18.8316L27.7273 21.8212L26.7728 22.5206L21.4157 15.2092L23.7759 13.4798C24.3284 13.075 24.8626 12.8287 25.3786 12.7408C25.9016 12.6478 26.3753 12.693 26.7998 12.8764C27.2244 13.0597 27.5878 13.3577 27.8901 13.7703C28.259 14.2738 28.4375 14.8255 28.4256 15.4253C28.4207 16.02 28.1742 16.593 27.6859 17.1441L31.766 18.8622L30.6226 19.6999ZM24.9758 18.0658L26.3814 17.0359C26.8989 16.6567 27.1948 16.2465 27.2691 15.8051C27.3383 15.3568 27.2166 14.9193 26.904 14.4928C26.5863 14.0592 26.211 13.8183 25.7781 13.7701C25.3521 13.7168 24.8769 13.8823 24.3524 14.2666L22.9467 15.2965L24.9758 18.0658Z" fill="white"/>
<path d="M38.0525 14.9101C37.2704 15.2129 36.4867 15.3077 35.7012 15.1945C34.9126 15.0733 34.2025 14.7595 33.5707 14.2532C32.9439 13.7356 32.4713 13.0656 32.153 12.2432C31.8346 11.4208 31.7345 10.6113 31.8526 9.81466C31.9756 9.00684 32.2894 8.29667 32.794 7.68417C33.2954 7.0636 33.9372 6.60195 34.7193 6.29921C35.5094 5.99335 36.2988 5.90102 37.0873 6.02222C37.8728 6.13536 38.5774 6.44668 39.2011 6.95619C39.8247 7.4657 40.2973 8.13568 40.6188 8.96613C40.9403 9.79659 41.0419 10.6101 40.9239 11.4068C40.8058 12.2034 40.496 12.912 39.9946 13.5326C39.49 14.1451 38.8427 14.6043 38.0525 14.9101ZM37.6827 13.9547C38.2713 13.7269 38.7463 13.3854 39.1078 12.9302C39.4774 12.472 39.6969 11.9374 39.7664 11.3264C39.8439 10.7123 39.7531 10.0707 39.494 9.40152C39.2319 8.72425 38.867 8.18873 38.3993 7.79496C37.9367 7.39001 37.4184 7.14098 36.8447 7.04787C36.2709 6.95476 35.6857 7.02368 35.0891 7.25464C34.4925 7.48559 34.0134 7.82865 33.6519 8.2838C33.2903 8.73895 33.0708 9.27355 32.9933 9.88762C32.9208 10.4905 33.0156 11.1306 33.2777 11.8078C33.5368 12.477 33.8976 13.0141 34.3603 13.4191C34.8311 13.8209 35.3533 14.0684 35.9271 14.1615C36.5089 14.2515 37.0941 14.1825 37.6827 13.9547Z" fill="white"/>
<path d="M46.8408 12.5037L49.9869 12.0911L50.112 13.0453L45.7925 13.6117L44.6142 4.62458L45.7875 4.47073L46.8408 12.5037Z" fill="white"/>
<path d="M54.4368 12.0959L57.6054 12.2625L57.5549 13.2235L53.2045 12.9948L53.6804 3.94328L54.8622 4.00542L54.4368 12.0959Z" fill="white"/>
<path d="M72.0473 7.8465C72.9511 8.24644 73.6566 8.76245 74.1637 9.39454C74.6823 10.0222 74.9775 10.7264 75.0492 11.5071C75.1288 12.2912 74.9809 13.1075 74.6055 13.9558C74.2301 14.8041 73.7255 15.4624 73.0916 15.9309C72.4691 16.3949 71.7512 16.646 70.9379 16.6843C70.136 16.7182 69.2832 16.5352 68.3794 16.1352L65.7989 14.9933L69.4667 6.70457L72.0473 7.8465ZM68.7741 15.2433C69.8444 15.7169 70.7855 15.7968 71.5975 15.483C72.413 15.1613 73.047 14.4891 73.4995 13.4664C73.9556 12.4357 74.0263 11.5047 73.7116 10.6734C73.4048 9.84558 72.7202 9.19661 71.6579 8.72651L70.1595 8.06345L67.2757 14.5803L68.7741 15.2433Z" fill="white"/>
<path d="M78.4674 22.3774C77.8211 21.8394 77.3561 21.1987 77.0726 20.4551C76.7946 19.7049 76.7237 18.9296 76.8597 18.1292C77.008 17.3277 77.3649 16.5871 77.9306 15.9074C78.4963 15.2277 79.157 14.7456 79.9128 14.4609C80.6807 14.1752 81.456 14.1042 82.2387 14.248C83.0269 14.3852 83.7442 14.7227 84.3905 15.2607C85.0436 15.8042 85.5091 16.4511 85.787 17.2013C86.0706 17.9448 86.141 18.714 85.9983 19.5089C85.8556 20.3037 85.4986 21.0443 84.9274 21.7307C84.3561 22.417 83.6926 22.9025 82.9369 23.1871C82.1811 23.4718 81.4092 23.5455 80.621 23.4084C79.8383 23.2645 79.1205 22.9209 78.4674 22.3774ZM79.1246 21.5877C79.6111 21.9926 80.1418 22.2426 80.7169 22.3377C81.2986 22.4383 81.8741 22.3703 82.4434 22.1335C83.0193 21.9022 83.5375 21.5101 83.9978 20.957C84.4637 20.3973 84.7552 19.8165 84.8725 19.2148C85.002 18.612 84.9678 18.0365 84.7699 17.4883C84.572 16.94 84.2264 16.4607 83.7333 16.0503C83.2402 15.6399 82.7062 15.3872 82.1311 15.2921C81.5561 15.197 80.9806 15.265 80.4046 15.4963C79.8409 15.7264 79.326 16.1213 78.8602 16.6811C78.3999 17.2341 78.105 17.8121 77.9755 18.4149C77.8526 19.0233 77.8902 19.6016 78.0881 20.1498C78.2927 20.7036 78.6382 21.1829 79.1246 21.5877Z" fill="white"/>
<path d="M97.7613 32.1314L88.6903 34.7338L87.984 33.611L93.0377 27.9434L85.6991 29.9784L84.9888 28.8736L91.3221 21.8942L91.9937 22.9619L86.5405 28.7271L94.2094 26.4844L94.9156 27.6072L89.5399 33.4466L97.0828 31.0526L97.7613 32.1314Z" fill="white"/>
<path d="M92.6142 46.4722L92.3183 45.3243L98.1293 38.9032L91.1284 40.7075L90.8326 39.5597L99.6373 37.2904L99.9331 38.4383L94.1348 44.8562L101.123 43.0551L101.419 44.203L92.6142 46.4722Z" fill="white"/>
<path d="M89.6981 68.9377C89.9328 68.3875 90.2394 67.9339 90.6179 67.5769C91.0009 67.2314 91.4166 67.0081 91.8649 66.9072C92.3213 66.8096 92.7784 66.8538 93.2363 67.0397L92.7414 68.2C92.3337 68.0732 91.9347 68.0915 91.5445 68.255C91.1589 68.4298 90.8505 68.7883 90.6192 69.3306C90.3981 69.8489 90.3522 70.3101 90.4815 70.714C90.6154 71.1292 90.8857 71.4236 91.2924 71.5971C91.6114 71.7331 91.908 71.756 92.1822 71.6655C92.4564 71.5751 92.7014 71.4205 92.9174 71.2015C93.1333 70.9826 93.3963 70.6754 93.7064 70.2798C94.0846 69.7908 94.4169 69.4094 94.7033 69.1357C94.9863 68.87 95.3303 68.6822 95.7354 68.5722C96.1451 68.4736 96.609 68.5348 97.1274 68.7559C97.5819 68.9498 97.9353 69.2372 98.1875 69.6181C98.4398 69.999 98.5732 70.4376 98.5877 70.9339C98.5988 71.4382 98.4887 71.9615 98.2574 72.5037C97.9241 73.2852 97.4566 73.8399 96.8549 74.1676C96.2499 74.5033 95.6108 74.5653 94.9377 74.3536L95.4479 73.1575C95.7839 73.2536 96.1344 73.2052 96.4995 73.0122C96.8726 72.8226 97.1628 72.4846 97.3703 71.9981C97.5642 71.5436 97.6027 71.1218 97.486 70.7326C97.3771 70.3469 97.1114 70.0639 96.6888 69.8836C96.3857 69.7544 96.1028 69.7327 95.84 69.8185C95.5738 69.9123 95.3361 70.0607 95.127 70.2637C94.9225 70.4781 94.6595 70.7853 94.338 71.1854C93.9518 71.671 93.6115 72.049 93.3171 72.3193C93.0307 72.593 92.681 72.7831 92.268 72.8897C91.8629 72.9997 91.3972 72.9424 90.8709 72.7179C90.4642 72.5445 90.1274 72.2736 89.8603 71.9052C89.5933 71.5368 89.4383 71.0937 89.3953 70.5758C89.3523 70.0579 89.4532 69.5119 89.6981 68.9377Z" fill="white"/>
<path d="M91.6593 77.6598C92.3579 78.1992 92.863 78.8407 93.1745 79.5841C93.4928 80.3328 93.6006 81.0993 93.4979 81.8836C93.3899 82.6748 93.0794 83.4026 92.5664 84.0669C91.9635 84.8477 91.249 85.3837 90.4228 85.675C89.5965 85.9663 88.7344 85.9785 87.8365 85.7114L88.7011 84.5916C89.286 84.7262 89.8402 84.695 90.364 84.4981C90.8824 84.3081 91.3426 83.9528 91.7445 83.4323C92.1306 82.9323 92.3605 82.3938 92.4344 81.8168C92.5083 81.2397 92.4167 80.6716 92.1597 80.1124C91.9096 79.5585 91.4969 79.0595 90.9216 78.6153C90.3531 78.1763 89.7659 77.9033 89.1599 77.7961C88.5608 77.6942 87.9914 77.752 87.4518 77.9695C86.9122 78.1869 86.4494 78.5456 86.0633 79.0456C85.6614 79.5661 85.4307 80.0985 85.3711 80.6429C85.3131 81.1994 85.4232 81.7435 85.7013 82.2753L84.8366 83.3951C84.358 82.5992 84.1551 81.7647 84.2279 80.8917C84.3076 80.0239 84.6488 79.1997 85.2517 78.4189C85.7647 77.7545 86.3868 77.2674 87.1181 76.9575C87.8509 76.6597 88.6164 76.5674 89.4144 76.6807C90.2124 76.794 90.9607 77.1204 91.6593 77.6598Z" fill="white"/>
<path d="M75.7017 86.3558L79.6895 88.0039L80.8339 87.1313L78.5731 84.1663L79.5198 83.4445L85.0488 90.6957L82.7081 92.4805C82.1602 92.8983 81.6275 93.1564 81.1102 93.2547C80.586 93.3583 80.1086 93.3219 79.6781 93.1457C79.2475 92.9694 78.8763 92.6767 78.5643 92.2675C78.1835 91.7681 77.9933 91.2167 77.9938 90.6131C77.9873 90.0148 78.2242 89.4338 78.7047 88.87L74.5678 87.2204L75.7017 86.3558ZM81.413 87.8908L80.0189 88.9538C79.5057 89.3451 79.2159 89.7634 79.1497 90.2088C79.0888 90.6611 79.2196 91.0988 79.5422 91.5218C79.8701 91.9518 80.2522 92.1869 80.6886 92.2271C81.1181 92.2725 81.593 92.0969 82.1131 91.7003L83.5072 90.6373L81.413 87.8908Z" fill="white"/>
<path d="M67.9607 90.3683C68.7427 90.0487 69.5304 89.9386 70.3237 90.0379C71.1202 90.1452 71.8414 90.448 72.4872 90.9462C73.1282 91.4558 73.6168 92.1218 73.9528 92.9442C74.2888 93.7666 74.4048 94.5801 74.3008 95.3847C74.192 96.2007 73.8892 96.9219 73.3924 97.5482C72.899 98.1827 72.2612 98.6597 71.4791 98.9792C70.689 99.3021 69.8956 99.4099 69.0991 99.3025C68.3058 99.2033 67.5903 98.9029 66.9526 98.4013C66.3148 97.8998 65.8263 97.2338 65.487 96.4033C65.1477 95.5729 65.03 94.7554 65.134 93.9507C65.2381 93.1461 65.5368 92.4266 66.0303 91.7921C66.5271 91.1658 67.1705 90.6912 67.9607 90.3683ZM68.3511 91.3237C67.7625 91.5642 67.2904 91.9171 66.9348 92.3823C66.5711 92.8508 66.36 93.3934 66.3014 94.01C66.2349 94.63 66.3383 95.2746 66.6117 95.9438C66.8885 96.621 67.266 97.1536 67.7444 97.5415C68.218 97.9407 68.7446 98.1819 69.3243 98.2649C69.9039 98.348 70.4921 98.2676 71.0887 98.0238C71.6854 97.78 72.1615 97.4255 72.5171 96.9603C72.8727 96.4951 73.0838 95.9525 73.1504 95.3326C73.2122 94.724 73.1048 94.081 72.828 93.4038C72.5546 92.7346 72.1811 92.2004 71.7075 91.8011C71.2258 91.4052 70.6951 91.1657 70.1155 91.0826C69.5278 91.0029 68.9396 91.0832 68.3511 91.3237Z" fill="white"/>
<path d="M59.5933 93.7436L56.455 94.2115L56.3131 93.2597L60.6219 92.6173L61.9585 101.582L60.788 101.757L59.5933 93.7436Z" fill="white"/>
<path d="M51.9904 94.289L48.8194 94.176L48.8536 93.2143L53.2073 93.3694L52.8847 102.428L51.702 102.385L51.9904 94.289Z" fill="white"/>
<path d="M34.4666 98.8477C33.5559 98.4638 32.8415 97.9603 32.3232 97.3372C31.7937 96.7188 31.4861 96.0199 31.4007 95.2406C31.3073 94.458 31.4408 93.6393 31.8011 92.7845C32.1615 91.9297 32.6545 91.2625 33.28 90.783C33.8942 90.3081 34.6076 90.0443 35.4201 89.9917C36.2212 89.9437 37.0771 90.1117 37.9878 90.4956L40.5881 91.5919L37.0669 99.944L34.4666 98.8477ZM37.6089 91.3943C36.5305 90.9397 35.5881 90.8764 34.7818 91.2044C33.9721 91.5405 33.35 92.2238 32.9156 93.2543C32.4777 94.2928 32.4235 95.2249 32.7528 96.0506C33.0741 96.8729 33.77 97.5097 34.8405 97.961L36.3503 98.5975L39.1188 92.0309L37.6089 91.3943Z" fill="white"/>
<path d="M27.7986 84.4351C28.4544 84.9616 28.9305 85.5941 29.2271 86.3325C29.5183 87.0777 29.6029 87.8516 29.481 88.6543C29.3469 89.4583 29.003 90.2051 28.4494 90.8946C27.8958 91.5842 27.2437 92.0779 26.4931 92.3758C25.7303 92.6751 24.9563 92.7597 24.1713 92.6297C23.3808 92.5065 22.6577 92.1816 22.0019 91.6551C21.3394 91.1232 20.8626 90.4847 20.5714 89.7395C20.2748 89.0011 20.1909 88.2332 20.3195 87.436C20.4482 86.6387 20.7921 85.8919 21.3511 85.1956C21.9102 84.4993 22.565 84.0022 23.3156 83.7043C24.0662 83.4064 24.8368 83.319 25.6273 83.4423C26.4123 83.5723 27.1361 83.9032 27.7986 84.4351ZM27.1555 85.2362C26.662 84.84 26.1269 84.5994 25.5502 84.5145C24.9669 84.4241 24.3926 84.5023 23.8276 84.7491C23.2558 84.9904 22.7447 85.3917 22.2942 85.9528C21.8383 86.5206 21.557 87.1064 21.4503 87.7101C21.3314 88.3151 21.3758 88.8899 21.5834 89.4346C21.7909 89.9792 22.1448 90.4524 22.6451 90.854C23.1453 91.2557 23.6838 91.499 24.2604 91.5839C24.8371 91.6689 25.4113 91.5907 25.9831 91.3493C26.5427 91.1093 27.0504 90.7054 27.5064 90.1375C27.9569 89.5764 28.2415 88.9933 28.3604 88.3883C28.4725 87.7779 28.4247 87.2003 28.2172 86.6557C28.0029 86.1056 27.649 85.6324 27.1555 85.2362Z" fill="white"/>
<path d="M8.32555 75.0092L17.3503 72.2504L18.0758 73.3608L13.1208 79.1149L20.4231 76.9534L21.1524 78.0458L14.9407 85.1336L14.2507 84.0776L19.6035 78.219L11.9746 80.5939L11.249 79.4835L16.5231 73.5521L9.02263 76.076L8.32555 75.0092Z" fill="white"/>
<path d="M12.3041 60.8796L12.6236 62.0157L6.98003 68.5336L13.9087 66.5849L14.2282 67.7209L5.51432 70.1717L5.1948 69.0357L10.8259 62.5213L3.90972 64.4665L3.5902 63.3304L12.3041 60.8796Z" fill="white"/>
<path d="M52.8663 72.6407C53.1245 72.8903 53.5361 72.8833 53.7857 72.6251L57.8529 68.4177C58.1025 68.1595 58.0955 67.7478 57.8373 67.4983C57.5791 67.2487 57.1675 67.2557 56.9179 67.5138L53.3026 71.2538L49.5626 67.6385C49.3044 67.3889 48.8928 67.3959 48.6432 67.6541C48.3936 67.9123 48.4006 68.3239 48.6588 68.5735L52.8663 72.6407ZM52.0178 33.8216L52.6681 72.1843L53.9683 72.1622L53.3181 33.7995L52.0178 33.8216Z" fill="white"/>
<circle cx="99.1587" cy="56.2437" r="1.62554" fill="white"/>
<circle cx="9.42827" cy="49.7408" r="1.62554" fill="white"/>
</g>
<defs>
<clipPath id="clip0_3004_7788">
<rect width="106.031" height="106.356" fill="white"/>
</clipPath>
</defs>
</svg>
